####
#
# OBJ File Generated by Meshlab
#
####
# Object disk1000.obj
#
# Vertices: 160
# Faces: 82
#
####
vn -0.0231523 0.7052092 -0.7086212
v 1025.0000000 1774.9998779 987.5001831
vn 0.0231523 0.7052091 0.7086214
v 1025.0000000 1774.9998779 1012.5001831
vn 0.1165094 0.4994653 0.8584638
v 1171.3177490 1760.5888672 1012.5001831
vn 0.1148721 0.6961755 -0.7086212
v 1171.3177490 1760.5888672 987.5001831
vn 0.2469948 0.5449954 0.8012325
v 1312.0125732 1717.9094238 1012.5001221
vn 0.1806149 0.4800191 -0.8584638
v 1312.0125732 1717.9094238 987.5001221
vn 0.9125327 -0.0248484 0.4082483
v 1319.4960938 1713.9094238 1012.5001221
vn 0.7449353 0.5276408 -0.4082483
v 1319.4960938 1713.9094238 987.5001221
vn -0.2436440 0.5456923 0.8017840
v 1473.2998047 1622.6503906 1012.5001221
vn 0.5647005 0.5647001 0.6018532
v 1555.3300781 1555.3299561 1012.5000610
vn 0.3909219 0.3909218 -0.8332828
v 1555.3300781 1555.3299561 987.5000610
vn 0.1325011 0.5827402 -0.8017839
v 1473.2998047 1622.6503906 987.5001221
vn 0.5992228 0.3725426 0.7086213
v 1648.6020508 1441.6774902 1012.5000610
vn 0.5734975 0.4110434 -0.7086212
v 1648.6020508 1441.6774902 987.5000610
vn 0.6603881 0.2484819 0.7086214
v 1717.9095459 1312.0124512 1012.5000610
vn 0.6426680 0.2912622 -0.7086213
v 1717.9095459 1312.0124512 987.5000610
vn 0.8198639 0.1352814 0.5563473
v 1760.5888672 1171.3176270 1012.5000000
vn 0.6871418 0.1602872 -0.7086213
v 1760.5888672 1171.3176270 987.5000000
vn 0.9477644 -0.0311157 0.3174500
v 1775.0000000 1024.9998779 1012.5000000
vn 0.9477644 0.0311157 -0.3174500
v 1775.0000000 1024.9998779 987.5000000
vn 0.6871419 -0.1602872 0.7086213
v 1760.5888672 878.6821289 1012.5000000
vn 0.8198639 -0.1352814 -0.5563473
v 1760.5888672 878.6821289 987.5000000
vn 0.6426681 -0.2912621 0.7086213
v 1717.9095459 737.9873047 1012.4999390
vn 0.6603882 -0.2484819 -0.7086214
v 1717.9095459 737.9873047 987.4999390
vn 0.5734975 -0.4110435 0.7086212
v 1648.6020508 608.3222046 1012.4999390
vn 0.5992228 -0.3725426 -0.7086212
v 1648.6020508 608.3222046 987.4999390
vn 0.3909219 -0.3909219 0.8332828
v 1555.3300781 494.6697998 1012.4999390
vn 0.5647004 -0.5647002 -0.6018533
v 1555.3300781 494.6697998 987.4999390
vn -0.2436449 -0.5456914 -0.8017843
v 1473.2998047 427.3493652 987.4998779
vn 0.1325008 -0.5827398 0.8017842
v 1473.2998047 427.3493652 1012.4998779
vn 0.1806146 -0.4800192 0.8584637
v 1312.0125732 332.0902710 1012.4998779
vn 0.2469947 -0.5449955 -0.8012326
v 1312.0125732 332.0902710 987.4998779
vn 0.9125331 0.0248447 -0.4082476
v 1319.4960938 336.0902710 987.4998779
vn 0.7449350 -0.5276417 0.4082476
v 1319.4960938 336.0902710 1012.4998779
vn 0.1148721 -0.6961756 0.7086212
v 1171.3177490 289.4109497 1012.4998169
vn 0.1165091 -0.4994654 -0.8584637
v 1171.3177490 289.4109497 987.4998169
vn -0.0231524 -0.7052092 0.7086212
v 1025.0000000 274.9998779 1012.4998169
vn 0.0231524 -0.7052090 -0.7086214
v 1025.0000000 274.9998779 987.4998169
vn -0.1602871 -0.6871420 0.7086212
v 878.6822510 289.4109497 1012.4998169
vn -0.1148721 -0.6961754 -0.7086214
v 878.6822510 289.4109497 987.4998169
vn -0.2912618 -0.6426683 0.7086212
v 737.9874268 332.0902710 1012.4998779
vn -0.2484820 -0.6603882 -0.7086214
v 737.9874268 332.0902710 987.4998779
vn -0.4110436 -0.5734973 0.7086212
v 608.3223877 401.3977051 1012.4998779
vn -0.3725427 -0.5992225 -0.7086214
v 608.3223877 401.3977051 987.4998779
vn -0.5150293 -0.4822870 0.7086213
v 494.6699829 494.6697998 1012.4999390
vn -0.4822870 -0.5150293 -0.7086214
v 494.6699829 494.6697998 987.4999390
vn -0.3333260 -0.2072322 0.9197546
v 401.3978882 608.3222046 1012.4999390
vn -0.2843191 -0.2037802 -0.9368225
v 401.3978882 608.3222046 987.4999390
vn -0.4800187 -0.1806151 0.8584639
v 332.0904541 737.9873047 1012.4999390
vn -0.4671388 -0.2117104 -0.8584638
v 332.0904541 737.9873047 987.4999390
vn -0.8198639 -0.1352810 0.5563472
v 289.4111328 878.6821289 1012.5000000
vn -0.8092254 -0.1887647 -0.5563471
v 289.4111328 878.6821289 987.5000000
vn -0.4863129 0.7725494 0.4082490
v 283.7791748 935.8645020 1012.5000000
vn -0.8525804 0.3262520 -0.4082478
v 283.7791748 935.8645630 987.5000000
vn -0.6311644 -0.5179775 0.5773481
v 283.7791748 1114.1352539 1012.5000000
vn -0.8763914 0.1743249 0.4489421
v 289.4111328 1171.3176270 1012.5000000
vn -0.6918442 0.1376163 -0.7088113
v 289.4111328 1171.3176270 987.5000000
vn -0.7288046 -0.5981084 -0.3333318
v 283.7791748 1114.1352539 987.5000000
vn -0.4671388 0.2117105 0.8584638
v 332.0904541 1312.0124512 1012.5000610
vn -0.4800187 0.1806152 -0.8584639
v 332.0904541 1312.0124512 987.5000610
vn -0.2843191 0.2037802 0.9368225
v 401.3978882 1441.6774902 1012.5000610
vn -0.3333260 0.2072323 -0.9197546
v 401.3978882 1441.6774902 987.5000610
vn -0.4822870 0.5150292 0.7086214
v 494.6699829 1555.3299561 1012.5000610
vn -0.5150294 0.4822869 -0.7086213
v 494.6699829 1555.3299561 987.5000610
vn -0.3725426 0.5992227 0.7086214
v 608.3223877 1648.6020508 1012.5001221
vn -0.4110436 0.5734974 -0.7086212
v 608.3223877 1648.6020508 987.5001221
vn -0.2484823 0.6603881 0.7086214
v 737.9874268 1717.9094238 1012.5001221
vn -0.2912619 0.6426683 -0.7086212
v 737.9874268 1717.9094238 987.5001221
vn 0.7777182 -0.2926300 0.5563472
v 1316.8508301 1708.9604492 1012.5001221
vn -0.1148721 0.6961754 0.7086214
v 878.6822510 1760.5888672 1012.5001831
vn -0.1148762 -0.6961751 0.7086210
v 292.5581665 1113.2705078 1012.5000000
vn -0.2926272 -0.7777191 0.5563473
v 309.4415894 1108.1490479 1012.5000000
vn -0.4387318 -0.7056857 0.5563473
v 325.0014038 1099.8321533 1012.5000000
vn -0.5647002 -0.5647004 0.6018531
v 338.6396484 1088.6395264 1012.5000000
vn -0.7056856 -0.4387319 0.5563472
v 349.8323364 1075.0012207 1012.5000000
vn -0.7777185 -0.2926290 0.5563471
v 358.1492310 1059.4414062 1012.5000000
vn -0.8198641 -0.1352806 0.5563471
v 363.2707520 1042.5579834 1012.5000000
vn -0.7052093 0.0231521 0.7086212
v 365.0000610 1024.9998779 1012.5000000
vn -0.8092253 0.1887644 0.5563474
v 363.2707520 1007.4417725 1012.5000000
vn -0.7568501 0.3430097 0.5563474
v 358.1492310 990.5583496 1012.5000000
vn -0.6753886 0.4840744 0.5563473
v 349.8323364 974.9985352 1012.5000000
vn -0.4822876 0.5150287 0.7086212
v 338.6396484 961.3602905 1012.5000000
vn -0.4387325 0.7056851 0.5563474
v 325.0014038 950.1676025 1012.5000000
vn -0.2926286 0.7777185 0.5563474
v 309.4415894 941.8507080 1012.5000000
vn -0.1078546 0.5422240 0.8332830
v 292.5581665 936.7291870 1012.5000000
vn 0.7568517 0.3430066 0.5563471
v 1316.8508301 341.0393066 1012.4998779
vn 0.8092251 0.1887653 0.5563474
v 1311.7292480 357.9227295 1012.4998779
vn 0.5980317 0.0196328 0.8012320
v 1310.0000000 375.4808350 1012.4998779
vn 0.6961758 -0.1148708 0.7086213
v 1311.7292480 393.0389404 1012.4998779
vn 0.6603876 -0.2484833 0.7086214
v 1316.8508301 409.9223633 1012.4998779
vn 0.5992225 -0.3725429 0.7086213
v 1325.1677246 425.4821777 1012.4998779
vn 0.5150293 -0.4822871 0.7086213
v 1336.3603516 439.1204224 1012.4998779
vn 0.4110438 -0.5734971 0.7086213
v 1349.9986572 450.3131104 1012.4998779
vn 0.2912617 -0.6426684 0.7086213
v 1365.5584717 458.6300049 1012.4998779
vn 0.1602865 -0.6871421 0.7086213
v 1382.4418945 463.7515259 1012.4999390
vn 0.0231530 -0.7052091 0.7086212
v 1400.0000000 465.4808350 1012.4999390
vn -0.1148720 -0.6961755 0.7086213
v 1417.5581055 463.7515259 1012.4999390
vn -0.2484825 -0.6603881 0.7086212
v 1434.4414062 458.6300049 1012.4998779
vn -0.3725428 -0.5992231 0.7086210
v 1450.0012207 450.3131104 1012.4998779
vn -0.5647005 -0.5646998 0.6018533
v 1463.6396484 439.1204224 1012.4998779
vn -0.4822872 0.5150290 0.7086214
v 1463.6396484 1610.8793945 1012.5001221
vn -0.3725426 0.5992227 0.7086214
v 1450.0012207 1599.6866455 1012.5001221
vn -0.2484811 0.6603885 0.7086214
v 1434.4414062 1591.3697510 1012.5001221
vn -0.1148720 0.6961755 0.7086213
v 1417.5581055 1586.2482910 1012.5000610
vn 0.0231530 0.7052090 0.7086214
v 1400.0000000 1584.5189209 1012.5000610
vn 0.1602859 0.6871422 0.7086212
v 1382.4418945 1586.2482910 1012.5000610
vn 0.2912602 0.6426686 0.7086216
v 1365.5584717 1591.3697510 1012.5001221
vn 0.4110451 0.5734960 0.7086214
v 1349.9986572 1599.6866455 1012.5001221
vn 0.3909222 0.3909216 0.8332828
v 1336.3603516 1610.8793945 1012.5001221
vn 0.5734965 0.4110445 0.7086214
v 1325.1677246 1624.5175781 1012.5001221
vn 0.6426681 0.2912623 0.7086213
v 1316.8508301 1640.0773926 1012.5001221
vn 0.6871418 0.1602871 0.7086214
v 1311.7292480 1656.9608154 1012.5001221
vn 0.5125991 0.0168281 0.8584632
v 1310.0000000 1674.5189209 1012.5001221
vn 0.8198640 -0.1352796 0.5563474
v 1311.7292480 1692.0770264 1012.5001221
vn -0.1602874 0.6871418 -0.7086212
v 878.6822510 1760.5888672 987.5001831
vn -0.1558005 0.7832621 -0.6018528
v 292.5581665 936.7291870 987.5000000
vn -0.3430097 0.7568502 -0.5563473
v 309.4415894 941.8507080 987.5000000
vn -0.4840744 0.6753886 -0.5563473
v 325.0014038 950.1676025 987.5000000
vn -0.5150289 0.4822877 -0.7086211
v 338.6396484 961.3602905 987.5000000
vn -0.7056852 0.4387325 -0.5563473
v 349.8323364 974.9985352 987.5000000
vn -0.7777185 0.2926289 -0.5563471
v 358.1492310 990.5583496 987.5000000
vn -0.8198640 0.1352806 -0.5563471
v 363.2707520 1007.4417725 987.5000000
vn -0.7052093 -0.0231521 -0.7086212
v 365.0000610 1024.9998779 987.5000000
vn -0.8092254 -0.1887643 -0.5563474
v 363.2707520 1042.5579834 987.5000000
vn -0.7568501 -0.3430097 -0.5563474
v 358.1492310 1059.4414062 987.5000000
vn -0.6753893 -0.4840734 -0.5563473
v 349.8323364 1075.0012207 987.5000000
vn -0.3909218 -0.3909217 -0.8332829
v 338.6396484 1088.6395264 987.5000000
vn -0.4840733 -0.6753893 -0.5563474
v 325.0014038 1099.8321533 987.5000000
vn -0.3430086 -0.7568505 -0.5563475
v 309.4415894 1108.1490479 987.5000000
vn -0.1602873 -0.6871420 -0.7086211
v 292.5581665 1113.2705078 987.5000000
vn 0.7568505 -0.3430091 -0.5563472
v 1316.8508301 1708.9604492 987.5001221
vn 0.8092251 -0.1887653 -0.5563474
v 1311.7292480 1692.0770264 987.5001221
vn 0.5980317 -0.0196328 -0.8012320
v 1310.0000000 1674.5189209 987.5001221
vn 0.6961758 0.1148708 -0.7086213
v 1311.7292480 1656.9608154 987.5001221
vn 0.6603876 0.2484833 -0.7086214
v 1316.8508301 1640.0773926 987.5001221
vn 0.5992222 0.3725434 -0.7086214
v 1325.1677246 1624.5175781 987.5001221
vn 0.5647005 0.5647002 -0.6018531
v 1336.3603516 1610.8793945 987.5001221
vn 0.3725433 0.5992223 -0.7086213
v 1349.9986572 1599.6866455 987.5001221
vn 0.2484801 0.6603889 -0.7086213
v 1365.5584717 1591.3697510 987.5001221
vn 0.1148724 0.6961756 -0.7086211
v 1382.4418945 1586.2482910 987.5000610
vn -0.0231521 0.7052091 -0.7086214
v 1400.0000000 1584.5189209 987.5000610
vn -0.1602867 0.6871421 -0.7086212
v 1417.5581055 1586.2482910 987.5000610
vn -0.2912614 0.6426684 -0.7086213
v 1434.4414062 1591.3697510 987.5001221
vn -0.4110440 0.5734974 -0.7086210
v 1450.0012207 1599.6866455 987.5001221
vn -0.5150299 0.4822863 -0.7086213
v 1463.6396484 1610.8793945 987.5001221
vn -0.3909221 -0.3909212 -0.8332830
v 1463.6396484 439.1204224 987.4998779
vn -0.4110424 -0.5734981 -0.7086213
v 1450.0012207 450.3131104 987.4998779
vn -0.2912622 -0.6426680 -0.7086213
v 1434.4414062 458.6300049 987.4998779
vn -0.1602867 -0.6871418 -0.7086214
v 1417.5581055 463.7515259 987.4999390
vn -0.0231522 -0.7052091 -0.7086213
v 1400.0000000 465.4808350 987.4999390
vn 0.1148715 -0.6961755 -0.7086214
v 1382.4418945 463.7515259 987.4999390
vn 0.2484809 -0.6603884 -0.7086216
v 1365.5584717 458.6300049 987.4998779
vn 0.3725429 -0.5992224 -0.7086214
v 1349.9986572 450.3131104 987.4998779
vn 0.4822873 -0.5150290 -0.7086213
v 1336.3603516 439.1204224 987.4998779
vn 0.5734972 -0.4110437 -0.7086213
v 1325.1677246 425.4821777 987.4998779
vn 0.6426681 -0.2912623 -0.7086213
v 1316.8508301 409.9223633 987.4998779
vn 0.6871418 -0.1602871 -0.7086214
v 1311.7292480 393.0389404 987.4998779
vn 0.5125991 -0.0168281 -0.8584632
v 1310.0000000 375.4808350 987.4998779
vn 0.8198641 0.1352796 -0.5563474
v 1311.7292480 357.9227295 987.4998779
vn 0.7777187 0.2926287 -0.5563471
v 1316.8508301 341.0393066 987.4998779
# 160 vertices, 0 vertices normals

f 3//3 4//4 1//1 2//2
f 5//5 6//6 4//4 3//3
f 7//7 8//8 6//6 5//5
f 11//11 12//12 9//9 10//10
f 13//13 14//14 11//11 10//10
f 15//15 16//16 14//14 13//13
f 17//17 18//18 16//16 15//15
f 19//19 20//20 18//18 17//17
f 21//21 22//22 20//20 19//19
f 23//23 24//24 22//22 21//21
f 25//25 26//26 24//24 23//23
f 27//27 28//28 26//26 25//25
f 27//27 30//30 29//29 28//28
f 33//33 34//34 31//31 32//32
f 35//35 36//36 32//32 31//31
f 37//37 38//38 36//36 35//35
f 39//39 40//40 38//38 37//37
f 41//41 42//42 40//40 39//39
f 43//43 44//44 42//42 41//41
f 45//45 46//46 44//44 43//43
f 47//47 48//48 46//46 45//45
f 49//49 50//50 48//48 47//47
f 51//51 52//52 50//50 49//49
f 53//53 54//54 52//52 51//51
f 57//57 58//58 55//55 56//56
f 59//59 60//60 57//57 56//56
f 61//61 62//62 60//60 59//59
f 63//63 64//64 62//62 61//61
f 65//65 66//66 64//64 63//63
f 67//67 68//68 66//66 65//65
f 3//3 2//2 70//70 67//67 65//65 63//63 61//61 59//59 56//56 55//55 71//71 72//72 73//73 74//74 75//75 76//76 77//77 78//78 79//79 80//80 81//81 82//82 83//83 84//84 85//85 53//53 51//51 49//49 47//47 45//45 43//43 41//41 39//39 37//37 35//35 31//31 34//34 86//86 87//87 88//88 89//89 90//90 91//91 92//92 93//93 94//94 95//95 96//96 97//97 98//98 99//99 100//100 30//30 27//27 25//25 23//23 21//21 19//19 17//17 15//15 13//13 10//10 9//9 101//101 102//102 103//103 104//104 105//105 106//106 107//107 108//108 109//109 110//110 111//111 112//112 113//113 114//114 69//69 7//7 5//5
f 70//70 115//115 68//68 67//67
f 2//2 1//1 115//115 70//70
f 36//36 38//38 40//40 42//42 44//44 46//46 48//48 50//50 52//52 54//54 116//116 117//117 118//118 119//119 120//120 121//121 122//122 123//123 124//124 125//125 126//126 127//127 128//128 129//129 130//130 58//58 57//57 60//60 62//62 64//64 66//66 68//68 115//115 1//1 4//4 6//6 8//8 131//131 132//132 133//133 134//134 135//135 136//136 137//137 138//138 139//139 140//140 141//141 142//142 143//143 144//144 145//145 12//12 11//11 14//14 16//16 18//18 20//20 22//22 24//24 26//26 28//28 29//29 146//146 147//147 148//148 149//149 150//150 151//151 152//152 153//153 154//154 155//155 156//156 157//157 158//158 159//159 160//160 33//33 32//32
f 101//101 9//9 12//12 145//145
f 145//145 144//144 102//102 101//101
f 144//144 143//143 103//103 102//102
f 143//143 142//142 104//104 103//103
f 142//142 141//141 105//105 104//104
f 141//141 140//140 106//106 105//105
f 140//140 139//139 107//107 106//106
f 139//139 138//138 108//108 107//107
f 138//138 137//137 109//109 108//108
f 109//109 137//137 136//136 110//110
f 110//110 136//136 135//135 111//111
f 111//111 135//135 134//134 112//112
f 112//112 134//134 133//133 113//113
f 113//113 133//133 132//132 114//114
f 114//114 132//132 131//131 69//69
f 69//69 131//131 8//8 7//7
f 130//130 71//71 55//55 58//58
f 71//71 130//130 129//129 72//72
f 72//72 129//129 128//128 73//73
f 73//73 128//128 127//127 74//74
f 127//127 126//126 75//75 74//74
f 126//126 125//125 76//76 75//75
f 125//125 124//124 77//77 76//76
f 124//124 123//123 78//78 77//77
f 123//123 122//122 79//79 78//78
f 122//122 121//121 80//80 79//79
f 121//121 120//120 81//81 80//80
f 120//120 119//119 82//82 81//81
f 119//119 118//118 83//83 82//82
f 118//118 117//117 84//84 83//83
f 117//117 116//116 85//85 84//84
f 85//85 116//116 54//54 53//53
f 96//96 150//150 149//149 97//97
f 97//97 149//149 148//148 98//98
f 98//98 148//148 147//147 99//99
f 99//99 147//147 146//146 100//100
f 146//146 29//29 30//30 100//100
f 160//160 86//86 34//34 33//33
f 86//86 160//160 159//159 87//87
f 87//87 159//159 158//158 88//88
f 88//88 158//158 157//157 89//89
f 89//89 157//157 156//156 90//90
f 90//90 156//156 155//155 91//91
f 91//91 155//155 154//154 92//92
f 92//92 154//154 153//153 93//93
f 93//93 153//153 152//152 94//94
f 94//94 152//152 151//151 95//95
f 95//95 151//151 150//150 96//96
# 82 faces, 0 coords texture

# End of File
