####
#
# OBJ File Generated by Meshlab
#
####
# Object pillars1.obj
#
# Vertices: 192
# Faces: 102
#
####
mtllib ./pillars1.obj.mtl

vn -0.0311153 0.9477645 -0.3174498
v 675.0000000 1661.2177734 150.0001221
vn 0.0032509 0.0990288 0.9950793
v 675.0000000 1661.2174072 2050.0000000
vn 0.2154189 0.9234825 0.3174503
v 679.8773193 1660.7370605 2050.0000000
vn 0.0161307 0.0977604 -0.9950793
v 679.8773193 1660.7374268 150.0001221
vn 0.3430119 0.7568491 0.5563474
v 684.5671387 1659.3144531 2050.0000000
vn 0.3339503 0.8875262 -0.3174499
v 684.5671387 1659.3146973 150.0001221
vn 0.4840711 0.6753910 0.5563473
v 688.8892822 1657.0041504 2050.0000000
vn 0.4387313 0.7056861 -0.5563470
v 688.8892822 1657.0045166 150.0001221
vn 0.6065353 0.5679722 0.5563476
v 692.6777344 1653.8950195 2050.0000000
vn 0.5679733 0.6065345 -0.5563473
v 692.6777344 1653.8955078 150.0001221
vn 0.7056848 0.4387333 0.5563471
v 695.7867432 1650.1066895 2050.0000000
vn 0.6753908 0.4840717 -0.5563470
v 695.7867432 1650.1070557 150.0001221
vn 0.7777189 0.2926275 0.5563475
v 698.0970459 1645.7844238 2050.0000000
vn 0.7568491 0.3430115 -0.5563475
v 698.0970459 1645.7849121 150.0001221
vn 0.8198646 0.1352770 0.5563473
v 699.5196533 1641.0947266 2050.0000000
vn 0.8092264 0.1887603 -0.5563473
v 699.5196533 1641.0949707 150.0001221
vn 0.8305026 -0.0272646 0.5563471
v 700.0000000 1636.2174072 2050.0000000
vn 0.8305026 0.0272647 -0.5563471
v 700.0000000 1636.2177734 150.0001221
vn 0.8092265 -0.1887602 0.5563473
v 699.5196533 1631.3400879 2050.0000000
vn 0.8198646 -0.1352769 -0.5563473
v 699.5196533 1631.3405762 150.0001221
vn 0.7568492 -0.3430114 0.5563474
v 698.0970459 1626.6503906 2050.0000000
vn 0.7777188 -0.2926274 -0.5563476
v 698.0970459 1626.6506348 150.0001221
vn 0.6753908 -0.4840716 0.5563470
v 695.7867432 1622.3281250 2050.0000000
vn 0.7056848 -0.4387332 -0.5563471
v 695.7867432 1622.3284912 150.0001221
vn 0.5679734 -0.6065344 0.5563474
v 692.6777344 1618.5397949 2050.0000000
vn 0.6065353 -0.5679721 -0.5563476
v 692.6777344 1618.5400391 150.0001221
vn 0.4387313 -0.7056860 0.5563471
v 688.8892822 1615.4306641 2050.0000000
vn 0.4840711 -0.6753909 -0.5563474
v 688.8892822 1615.4310303 150.0001221
vn 0.2926324 -0.7777173 0.5563471
v 684.5671387 1613.1203613 2050.0000000
vn 0.3430119 -0.7568491 -0.5563474
v 684.5671387 1613.1208496 150.0001221
vn 0.1352795 -0.8198641 0.5563474
v 679.8773193 1611.6977539 2050.0000000
vn 0.1887662 -0.8092247 -0.5563476
v 679.8773193 1611.6981201 150.0001221
vn -0.0272656 -0.8305026 0.5563471
v 675.0000000 1611.2174072 2050.0000000
vn 0.0272636 -0.8305025 -0.5563473
v 675.0000000 1611.2177734 150.0001221
vn -0.1887669 -0.8092248 0.5563473
v 670.1228027 1611.6977539 2050.0000000
vn -0.1352808 -0.8198637 -0.5563476
v 670.1228027 1611.6981201 150.0001221
vn -0.3430090 -0.7568507 0.5563470
v 665.4329834 1613.1203613 2050.0000000
vn -0.2926309 -0.7777178 -0.5563473
v 665.4329834 1613.1208496 150.0001221
vn -0.4840733 -0.6753893 0.5563473
v 661.1107788 1615.4306641 2050.0000000
vn -0.4387303 -0.7056863 -0.5563475
v 661.1107788 1615.4310303 150.0001221
vn -0.6065297 -0.5679787 0.5563470
v 657.3223877 1618.5397949 2050.0000000
vn -0.5679727 -0.6065351 -0.5563471
v 657.3223877 1618.5400391 150.0001221
vn -0.7056881 -0.4387272 0.5563477
v 654.2132568 1622.3281250 2050.0000000
vn -0.6753877 -0.4840750 -0.5563478
v 654.2132568 1622.3284912 150.0001221
vn -0.7777191 -0.2926281 0.5563469
v 651.9030762 1626.6503906 2050.0000000
vn -0.7568532 -0.3430034 -0.5563470
v 651.9030762 1626.6506348 150.0001221
vn -0.8198630 -0.1352870 0.5563473
v 650.4804077 1631.3400879 2050.0000000
vn -0.8092241 -0.1887698 -0.5563473
v 650.4804077 1631.3405762 150.0001221
vn -0.8305022 0.0272680 0.5563475
v 650.0000000 1636.2174072 2050.0000000
vn -0.8305022 -0.0272680 -0.5563476
v 650.0000000 1636.2177734 150.0001221
vn -0.8092241 0.1887699 0.5563473
v 650.4804077 1641.0947266 2050.0000000
vn -0.8198629 0.1352871 -0.5563473
v 650.4804077 1641.0949707 150.0001221
vn -0.7568532 0.3430035 0.5563470
v 651.9030762 1645.7844238 2050.0000000
vn -0.7777190 0.2926283 -0.5563468
v 651.9030762 1645.7849121 150.0001221
vn -0.6753877 0.4840750 0.5563478
v 654.2132568 1650.1066895 2050.0000000
vn -0.7056881 0.4387273 -0.5563477
v 654.2132568 1650.1070557 150.0001221
vn -0.5679728 0.6065351 0.5563471
v 657.3223877 1653.8950195 2050.0000000
vn -0.6065297 0.5679789 -0.5563469
v 657.3223877 1653.8955078 150.0001221
vn -0.4387302 0.7056864 0.5563475
v 661.1107788 1657.0041504 2050.0000000
vn -0.4840733 0.6753894 -0.5563473
v 661.1107788 1657.0045166 150.0001221
vn -0.2926309 0.7777178 0.5563472
v 665.4329834 1659.3144531 2050.0000000
vn -0.3430090 0.7568506 -0.5563470
v 665.4329834 1659.3146973 150.0001221
vn -0.1543817 0.9356236 0.3174503
v 670.1228027 1660.7370605 2050.0000000
vn -0.1887669 0.8092248 -0.5563473
v 670.1228027 1660.7374268 150.0001221
vn -0.0311153 0.9477645 -0.3174498
v 675.0000000 448.7822266 149.9998779
vn 0.0032509 0.0990288 0.9950793
v 675.0000000 448.7818604 2050.0000000
vn 0.2154189 0.9234825 0.3174504
v 679.8773193 448.3015137 2050.0000000
vn 0.0161307 0.0977604 -0.9950793
v 679.8773193 448.3018799 149.9998779
vn 0.3430119 0.7568491 0.5563474
v 684.5671387 446.8788452 2050.0000000
vn 0.3339503 0.8875263 -0.3174498
v 684.5671387 446.8792114 149.9998779
vn 0.4840711 0.6753910 0.5563473
v 688.8892822 444.5686035 2050.0000000
vn 0.4387313 0.7056862 -0.5563470
v 688.8892822 444.5689697 149.9998779
vn 0.6065353 0.5679722 0.5563476
v 692.6777344 441.4595337 2050.0000000
vn 0.5679733 0.6065345 -0.5563474
v 692.6777344 441.4598999 149.9998779
vn 0.7056848 0.4387333 0.5563471
v 695.7867432 437.6711426 2050.0000000
vn 0.6753908 0.4840716 -0.5563470
v 695.7867432 437.6715088 149.9998779
vn 0.7777189 0.2926275 0.5563475
v 698.0970459 433.3489380 2050.0000000
vn 0.7568492 0.3430116 -0.5563474
v 698.0970459 433.3493042 149.9998779
vn 0.8198646 0.1352770 0.5563473
v 699.5196533 428.6591187 2050.0000000
vn 0.8092264 0.1887603 -0.5563473
v 699.5196533 428.6594849 149.9998779
vn 0.8305026 -0.0272646 0.5563471
v 700.0000000 423.7818604 2050.0000000
vn 0.8305026 0.0272647 -0.5563471
v 700.0000000 423.7822266 149.9998779
vn 0.8092265 -0.1887602 0.5563473
v 699.5196533 418.9046021 2050.0000000
vn 0.8198646 -0.1352769 -0.5563473
v 699.5196533 418.9049683 149.9998779
vn 0.7568492 -0.3430114 0.5563474
v 698.0970459 414.2147827 2050.0000000
vn 0.7777189 -0.2926273 -0.5563475
v 698.0970459 414.2151489 149.9998779
vn 0.6753908 -0.4840716 0.5563470
v 695.7867432 409.8925781 2050.0000000
vn 0.7056848 -0.4387332 -0.5563472
v 695.7867432 409.8929443 149.9998779
vn 0.5679734 -0.6065344 0.5563474
v 692.6777344 406.1041870 2050.0000000
vn 0.6065353 -0.5679721 -0.5563476
v 692.6777344 406.1045532 149.9998779
vn 0.4387313 -0.7056860 0.5563471
v 688.8892822 402.9951172 2050.0000000
vn 0.4840712 -0.6753908 -0.5563473
v 688.8892822 402.9954834 149.9998779
vn 0.2926324 -0.7777173 0.5563471
v 684.5671387 400.6848755 2050.0000000
vn 0.3430119 -0.7568491 -0.5563474
v 684.5671387 400.6852417 149.9998779
vn 0.1352795 -0.8198641 0.5563474
v 679.8773193 399.2622070 2050.0000000
vn 0.1887662 -0.8092247 -0.5563476
v 679.8773193 399.2625732 149.9998779
vn -0.0272656 -0.8305026 0.5563471
v 675.0000000 398.7818604 2050.0000000
vn 0.0272636 -0.8305025 -0.5563473
v 675.0000000 398.7822266 149.9998779
vn -0.1887669 -0.8092248 0.5563473
v 670.1228027 399.2622070 2050.0000000
vn -0.1352809 -0.8198637 -0.5563476
v 670.1228027 399.2625732 149.9998779
vn -0.3430090 -0.7568506 0.5563470
v 665.4329834 400.6848755 2050.0000000
vn -0.2926309 -0.7777178 -0.5563473
v 665.4329834 400.6852417 149.9998779
vn -0.4840733 -0.6753893 0.5563473
v 661.1107788 402.9951172 2050.0000000
vn -0.4387302 -0.7056863 -0.5563475
v 661.1107788 402.9954834 149.9998779
vn -0.6065298 -0.5679787 0.5563470
v 657.3223877 406.1041870 2050.0000000
vn -0.5679728 -0.6065351 -0.5563471
v 657.3223877 406.1045532 149.9998779
vn -0.7056881 -0.4387272 0.5563477
v 654.2132568 409.8925781 2050.0000000
vn -0.6753877 -0.4840750 -0.5563479
v 654.2132568 409.8929443 149.9998779
vn -0.7777191 -0.2926281 0.5563469
v 651.9030762 414.2147827 2050.0000000
vn -0.7568532 -0.3430034 -0.5563470
v 651.9030762 414.2151489 149.9998779
vn -0.8198630 -0.1352870 0.5563473
v 650.4804077 418.9046021 2050.0000000
vn -0.8092241 -0.1887698 -0.5563473
v 650.4804077 418.9049683 149.9998779
vn -0.8305022 0.0272680 0.5563475
v 650.0000000 423.7818604 2050.0000000
vn -0.8305022 -0.0272679 -0.5563476
v 650.0000000 423.7822266 149.9998779
vn -0.8092241 0.1887699 0.5563473
v 650.4804077 428.6591187 2050.0000000
vn -0.8198630 0.1352871 -0.5563472
v 650.4804077 428.6594849 149.9998779
vn -0.7568532 0.3430034 0.5563470
v 651.9030762 433.3489380 2050.0000000
vn -0.7777191 0.2926282 -0.5563469
v 651.9030762 433.3493042 149.9998779
vn -0.6753877 0.4840750 0.5563478
v 654.2132568 437.6711426 2050.0000000
vn -0.7056880 0.4387274 -0.5563477
v 654.2132568 437.6715088 149.9998779
vn -0.5679728 0.6065351 0.5563471
v 657.3223877 441.4595337 2050.0000000
vn -0.6065297 0.5679789 -0.5563469
v 657.3223877 441.4598999 149.9998779
vn -0.4387302 0.7056864 0.5563475
v 661.1107788 444.5686035 2050.0000000
vn -0.4840733 0.6753893 -0.5563473
v 661.1107788 444.5689697 149.9998779
vn -0.2926309 0.7777178 0.5563472
v 665.4329834 446.8788452 2050.0000000
vn -0.3430090 0.7568506 -0.5563470
v 665.4329834 446.8792114 149.9998779
vn -0.1543817 0.9356236 0.3174504
v 670.1228027 448.3015137 2050.0000000
vn -0.1887669 0.8092248 -0.5563473
v 670.1228027 448.3018799 149.9998779
vn -0.0311130 0.9477646 -0.3174498
v 1725.0000000 1055.0000000 150.0000000
vn 0.0032511 0.0990288 0.9950793
v 1725.0000000 1054.9996338 2050.0000000
vn 0.2154197 0.9234824 0.3174503
v 1729.8771973 1054.5192871 2050.0000000
vn 0.0161308 0.0977604 -0.9950793
v 1729.8771973 1054.5196533 150.0000000
vn 0.3430119 0.7568491 0.5563474
v 1734.5670166 1053.0965576 2050.0000000
vn 0.3339503 0.8875262 -0.3174498
v 1734.5670166 1053.0970459 150.0000000
vn 0.4840754 0.6753877 0.5563474
v 1738.8891602 1050.7863770 2050.0000000
vn 0.4387335 0.7056846 -0.5563472
v 1738.8891602 1050.7867432 150.0000000
vn 0.6065342 0.5679737 0.5563473
v 1742.6776123 1047.6772461 2050.0000000
vn 0.5679757 0.6065325 -0.5563470
v 1742.6776123 1047.6776123 150.0000000
vn 0.7056835 0.4387351 0.5563473
v 1745.7866211 1043.8889160 2050.0000000
vn 0.6753882 0.4840752 -0.5563471
v 1745.7866211 1043.8892822 150.0000000
vn 0.7777195 0.2926255 0.5563476
v 1748.0969238 1039.5666504 2050.0000000
vn 0.7568495 0.3430106 -0.5563475
v 1748.0969238 1039.5671387 150.0000000
vn 0.8198627 0.1352903 0.5563467
v 1749.5195312 1034.8768311 2050.0000000
vn 0.8092256 0.1887654 -0.5563467
v 1749.5195312 1034.8771973 150.0000000
vn 0.8305019 -0.0272711 0.5563480
v 1750.0000000 1029.9996338 2050.0000000
vn 0.8305018 0.0272723 -0.5563480
v 1750.0000000 1030.0000000 150.0000000
vn 0.8092254 -0.1887659 0.5563468
v 1749.5195312 1025.1223145 2050.0000000
vn 0.8198627 -0.1352900 -0.5563468
v 1749.5195312 1025.1228027 150.0000000
vn 0.7568487 -0.3430124 0.5563475
v 1748.0969238 1020.4324951 2050.0000000
vn 0.7777189 -0.2926272 -0.5563477
v 1748.0969238 1020.4329224 150.0000000
vn 0.6753904 -0.4840723 0.5563470
v 1745.7866211 1016.1103516 2050.0000000
vn 0.7056839 -0.4387346 -0.5563471
v 1745.7866211 1016.1107178 150.0000000
vn 0.5679734 -0.6065344 0.5563474
v 1742.6776123 1012.3219604 2050.0000000
vn 0.6065353 -0.5679721 -0.5563476
v 1742.6776123 1012.3223267 150.0000000
vn 0.4387313 -0.7056860 0.5563471
v 1738.8891602 1009.2128906 2050.0000000
vn 0.4840712 -0.6753908 -0.5563473
v 1738.8891602 1009.2132568 150.0000000
vn 0.2926324 -0.7777173 0.5563471
v 1734.5670166 1006.9026489 2050.0000000
vn 0.3430119 -0.7568491 -0.5563474
v 1734.5670166 1006.9030151 150.0000000
vn 0.1352809 -0.8198639 0.5563473
v 1729.8771973 1005.4799805 2050.0000000
vn 0.1887669 -0.8092246 -0.5563475
v 1729.8771973 1005.4803467 150.0000000
vn -0.0272636 -0.8305027 0.5563470
v 1725.0000000 1004.9996338 2050.0000000
vn 0.0272656 -0.8305025 -0.5563473
v 1725.0000000 1005.0000000 150.0000000
vn -0.1887663 -0.8092249 0.5563474
v 1720.1226807 1005.4799805 2050.0000000
vn -0.1352795 -0.8198639 -0.5563476
v 1720.1226807 1005.4803467 150.0000000
vn -0.3430060 -0.7568520 0.5563470
v 1715.4328613 1006.9026489 2050.0000000
vn -0.2926294 -0.7777184 -0.5563471
v 1715.4328613 1006.9030151 150.0000000
vn -0.4840755 -0.6753876 0.5563475
v 1711.1105957 1009.2128906 2050.0000000
vn -0.4387293 -0.7056867 -0.5563478
v 1711.1105957 1009.2132568 150.0000000
vn -0.6065313 -0.5679772 0.5563468
v 1707.3222656 1012.3219604 2050.0000000
vn -0.5679761 -0.6065322 -0.5563470
v 1707.3222656 1012.3223267 150.0000000
vn -0.7056872 -0.4387287 0.5563477
v 1704.2131348 1016.1103516 2050.0000000
vn -0.6753872 -0.4840757 -0.5563478
v 1704.2131348 1016.1107178 150.0000000
vn -0.7777169 -0.2926341 0.5563468
v 1701.9029541 1020.4324951 2050.0000000
vn -0.7568514 -0.3430074 -0.5563468
v 1701.9029541 1020.4329224 150.0000000
vn -0.8198653 -0.1352693 0.5563480
v 1700.4802246 1025.1223145 2050.0000000
vn -0.8092247 -0.1887652 -0.5563480
v 1700.4802246 1025.1228027 150.0000000
vn -0.8305033 0.0272583 0.5563464
v 1700.0000000 1029.9996338 2050.0000000
vn -0.8305033 -0.0272572 -0.5563463
v 1700.0000000 1030.0000000 150.0000000
vn -0.8092249 0.1887646 0.5563480
v 1700.4802246 1034.8768311 2050.0000000
vn -0.8198653 0.1352695 -0.5563480
v 1700.4802246 1034.8771973 150.0000000
vn -0.7568523 0.3430056 0.5563468
v 1701.9029541 1039.5666504 2050.0000000
vn -0.7777175 0.2926326 -0.5563468
v 1701.9029541 1039.5671387 150.0000000
vn -0.6753851 0.4840786 0.5563480
v 1704.2131348 1043.8889160 2050.0000000
vn -0.7056868 0.4387291 -0.5563478
v 1704.2131348 1043.8892822 150.0000000
vn -0.5679785 0.6065301 0.5563467
v 1707.3222656 1047.6772461 2050.0000000
vn -0.6065302 0.5679787 -0.5563464
v 1707.3222656 1047.6776123 150.0000000
vn -0.4387314 0.7056853 0.5563479
v 1711.1105957 1050.7863770 2050.0000000
vn -0.4840797 0.6753845 -0.5563477
v 1711.1105957 1050.7867432 150.0000000
vn -0.2926294 0.7777184 0.5563471
v 1715.4328613 1053.0965576 2050.0000000
vn -0.3430060 0.7568520 -0.5563469
v 1715.4328613 1053.0970459 150.0000000
vn -0.1543802 0.9356239 0.3174504
v 1720.1226807 1054.5192871 2050.0000000
vn -0.1887663 0.8092250 -0.5563474
v 1720.1226807 1054.5196533 150.0000000
# 192 vertices, 0 vertices normals


usemtl material_0
f 3//3 4//4 1//1 2//2
f 5//5 6//6 4//4 3//3
f 7//7 8//8 6//6 5//5
f 9//9 10//10 8//8 7//7
f 11//11 12//12 10//10 9//9
f 13//13 14//14 12//12 11//11
f 15//15 16//16 14//14 13//13
f 17//17 18//18 16//16 15//15
f 19//19 20//20 18//18 17//17
f 21//21 22//22 20//20 19//19
f 23//23 24//24 22//22 21//21
f 25//25 26//26 24//24 23//23
f 27//27 28//28 26//26 25//25
f 29//29 30//30 28//28 27//27
f 31//31 32//32 30//30 29//29
f 33//33 34//34 32//32 31//31
f 35//35 36//36 34//34 33//33
f 37//37 38//38 36//36 35//35
f 39//39 40//40 38//38 37//37
f 41//41 42//42 40//40 39//39
f 43//43 44//44 42//42 41//41
f 45//45 46//46 44//44 43//43
f 47//47 48//48 46//46 45//45
f 49//49 50//50 48//48 47//47
f 51//51 52//52 50//50 49//49
f 53//53 54//54 52//52 51//51
f 55//55 56//56 54//54 53//53
f 57//57 58//58 56//56 55//55
f 59//59 60//60 58//58 57//57
f 61//61 62//62 60//60 59//59
f 63//63 61//61 59//59 57//57 55//55 53//53 51//51 49//49 47//47 45//45 43//43 41//41 39//39 37//37 35//35 33//33 31//31 29//29 27//27 25//25 23//23 21//21 19//19 17//17 15//15 13//13 11//11 9//9 7//7 5//5 3//3 2//2
f 63//63 64//64 62//62 61//61
f 2//2 1//1 64//64 63//63
f 6//6 8//8 10//10 12//12 14//14 16//16 18//18 20//20 22//22 24//24 26//26 28//28 30//30 32//32 34//34 36//36 38//38 40//40 42//42 44//44 46//46 48//48 50//50 52//52 54//54 56//56 58//58 60//60 62//62 64//64 1//1 4//4
f 67//67 68//68 65//65 66//66
f 69//69 70//70 68//68 67//67
f 71//71 72//72 70//70 69//69
f 73//73 74//74 72//72 71//71
f 75//75 76//76 74//74 73//73
f 77//77 78//78 76//76 75//75
f 79//79 80//80 78//78 77//77
f 81//81 82//82 80//80 79//79
f 83//83 84//84 82//82 81//81
f 85//85 86//86 84//84 83//83
f 87//87 88//88 86//86 85//85
f 89//89 90//90 88//88 87//87
f 91//91 92//92 90//90 89//89
f 93//93 94//94 92//92 91//91
f 95//95 96//96 94//94 93//93
f 97//97 98//98 96//96 95//95
f 99//99 100//100 98//98 97//97
f 101//101 102//102 100//100 99//99
f 103//103 104//104 102//102 101//101
f 105//105 106//106 104//104 103//103
f 107//107 108//108 106//106 105//105
f 109//109 110//110 108//108 107//107
f 111//111 112//112 110//110 109//109
f 113//113 114//114 112//112 111//111
f 115//115 116//116 114//114 113//113
f 117//117 118//118 116//116 115//115
f 119//119 120//120 118//118 117//117
f 121//121 122//122 120//120 119//119
f 123//123 124//124 122//122 121//121
f 125//125 126//126 124//124 123//123
f 127//127 125//125 123//123 121//121 119//119 117//117 115//115 113//113 111//111 109//109 107//107 105//105 103//103 101//101 99//99 97//97 95//95 93//93 91//91 89//89 87//87 85//85 83//83 81//81 79//79 77//77 75//75 73//73 71//71 69//69 67//67 66//66
f 127//127 128//128 126//126 125//125
f 66//66 65//65 128//128 127//127
f 70//70 72//72 74//74 76//76 78//78 80//80 82//82 84//84 86//86 88//88 90//90 92//92 94//94 96//96 98//98 100//100 102//102 104//104 106//106 108//108 110//110 112//112 114//114 116//116 118//118 120//120 122//122 124//124 126//126 128//128 65//65 68//68
f 131//131 132//132 129//129 130//130
f 133//133 134//134 132//132 131//131
f 135//135 136//136 134//134 133//133
f 137//137 138//138 136//136 135//135
f 139//139 140//140 138//138 137//137
f 141//141 142//142 140//140 139//139
f 143//143 144//144 142//142 141//141
f 145//145 146//146 144//144 143//143
f 147//147 148//148 146//146 145//145
f 149//149 150//150 148//148 147//147
f 151//151 152//152 150//150 149//149
f 153//153 154//154 152//152 151//151
f 155//155 156//156 154//154 153//153
f 157//157 158//158 156//156 155//155
f 159//159 160//160 158//158 157//157
f 161//161 162//162 160//160 159//159
f 163//163 164//164 162//162 161//161
f 165//165 166//166 164//164 163//163
f 167//167 168//168 166//166 165//165
f 169//169 170//170 168//168 167//167
f 171//171 172//172 170//170 169//169
f 173//173 174//174 172//172 171//171
f 175//175 176//176 174//174 173//173
f 177//177 178//178 176//176 175//175
f 179//179 180//180 178//178 177//177
f 181//181 182//182 180//180 179//179
f 183//183 184//184 182//182 181//181
f 185//185 186//186 184//184 183//183
f 187//187 188//188 186//186 185//185
f 189//189 190//190 188//188 187//187
f 191//191 189//189 187//187 185//185 183//183 181//181 179//179 177//177 175//175 173//173 171//171 169//169 167//167 165//165 163//163 161//161 159//159 157//157 155//155 153//153 151//151 149//149 147//147 145//145 143//143 141//141 139//139 137//137 135//135 133//133 131//131 130//130
f 191//191 192//192 190//190 189//189
f 130//130 129//129 192//192 191//191
f 134//134 136//136 138//138 140//140 142//142 144//144 146//146 148//148 150//150 152//152 154//154 156//156 158//158 160//160 162//162 164//164 166//166 168//168 170//170 172//172 174//174 176//176 178//178 180//180 182//182 184//184 186//186 188//188 190//190 192//192 129//129 132//132
# 102 faces, 0 coords texture

# End of File
